
<svg version="1.0" xmlns="http://www.w3.org/2000/svg"
 width="500.000000pt" height="500.000000pt" viewBox="0 0 500.000000 500.000000"
 preserveAspectRatio="xMidYMid meet">
<g transform="translate(0.000000,500.000000) scale(0.100000,-0.100000)"
fill="#000000" stroke="none">
<path d="M1493 4978 c-12 -16 -1385 -3425 -1390 -3454 -3 -11 3 -28 12 -37 15
-15 65 -17 526 -17 l510 0 21 23 c12 12 90 193 173 402 84 208 159 384 168
389 12 8 21 7 32 -5 9 -9 220 -522 469 -1140 l453 -1124 31 -3 c22 -2 34 2 40
15 6 10 121 293 256 628 180 443 246 618 243 640 -4 32 -1449 3635 -1473 3673
-16 24 -56 30 -71 10z"/>
<path d="M3443 4978 c-17 -23 -505 -1242 -505 -1263 0 -32 881 -2219 899
-2233 13 -9 134 -12 523 -12 554 0 547 -1 538 56 -6 33 -1363 3407 -1384 3442
-16 24 -56 30 -71 10z"/>
</g>
</svg>
